<svg width="136" height="130" viewBox="0 0 136 130" fill="none" xmlns="http://www.w3.org/2000/svg">
<g clip-path="url(#clip0_601_2448)">
<path d="M127.224 -0.414046H8.76354C7.88286 -0.41466 7.01069 -0.240461 6.19692 0.0985885C5.38316 0.437638 4.64376 0.934886 4.02103 1.56189C3.39829 2.1889 2.90443 2.93336 2.5677 3.7527C2.23097 4.57203 2.05797 5.45017 2.0586 6.33688V85.7887C2.05863 88.2975 3.04848 90.7034 4.81039 92.4774C6.57231 94.2513 8.96196 95.2479 11.4537 95.2479V25.2552H124.547V95.2478C127.038 95.2478 129.428 94.2513 131.19 92.4773C132.952 90.7034 133.942 88.2974 133.942 85.7887V6.33688C133.942 5.44916 133.768 4.57012 133.431 3.75009C133.093 2.93006 132.598 2.18516 131.974 1.55805C131.35 0.930951 130.609 0.433963 129.794 0.0955582C128.979 -0.242847 128.105 -0.416021 127.224 -0.414046ZM42.9056 16.8661H11.4537V7.97499H42.9056V16.8661ZM94.0001 16.8661C93.1269 16.8648 92.2736 16.6028 91.5482 16.1132C90.8228 15.6236 90.2579 14.9285 89.9249 14.1157C89.5919 13.3029 89.5058 12.4089 89.6774 11.5468C89.8491 10.6847 90.2708 9.8932 90.8892 9.2724C91.5076 8.6516 92.2949 8.22938 93.1517 8.05913C94.0084 7.88888 94.8961 7.97824 95.7024 8.31592C96.5087 8.6536 97.1974 9.22443 97.6815 9.95623C98.1656 10.688 98.4233 11.5479 98.422 12.4272C98.4187 13.6057 97.9514 14.7348 97.1225 15.567C96.2935 16.3991 95.1707 16.8663 94.0001 16.8661ZM107.03 16.8661C106.156 16.8674 105.301 16.6076 104.574 16.1196C103.847 15.6316 103.28 14.9374 102.945 14.1248C102.61 13.3122 102.522 12.4178 102.692 11.5549C102.862 10.6919 103.283 9.89917 103.901 9.27705C104.519 8.65494 105.306 8.23141 106.163 8.06009C107.02 7.88877 107.909 7.97736 108.716 8.31466C109.523 8.65195 110.212 9.22277 110.697 9.95485C111.182 10.6869 111.44 11.5473 111.438 12.4272C111.433 13.6027 110.967 14.7286 110.141 15.5599C109.315 16.3911 108.197 16.8606 107.03 16.8661ZM120.059 16.8661C119.186 16.8648 118.333 16.6028 117.607 16.1133C116.882 15.6237 116.317 14.9286 115.984 14.1158C115.651 13.303 115.565 12.409 115.736 11.5469C115.908 10.6848 116.33 9.89325 116.948 9.27244C117.567 8.65163 118.354 8.2294 119.211 8.05914C120.067 7.88887 120.955 7.97823 121.761 8.31591C122.568 8.65359 123.256 9.22442 123.741 9.95621C124.225 10.688 124.482 11.5479 124.481 12.4272C124.481 13.0111 124.366 13.5894 124.144 14.1287C123.921 14.668 123.596 15.1579 123.185 15.5702C122.774 15.9826 122.287 16.3093 121.75 16.5316C121.214 16.754 120.639 16.8676 120.059 16.8661Z" fill="#212B36"/>
<path d="M115.277 107.167V87.7318C115.277 87.2113 115.175 86.696 114.977 86.2151C114.779 85.7342 114.489 85.2973 114.124 84.9293C113.758 84.5612 113.324 84.2693 112.847 84.0701C112.369 83.871 111.857 83.7684 111.34 83.7685H78.011L71.9397 75.6206V63.8812H80.9673C81.1397 63.8813 81.3103 63.8471 81.4695 63.7807C81.6287 63.7143 81.7734 63.617 81.8952 63.4944C82.0171 63.3717 82.1138 63.226 82.1797 63.0658C82.2457 62.9055 82.2796 62.7337 82.2796 62.5602V36.4538C82.2796 36.1034 82.1413 35.7674 81.8952 35.5197C81.6491 35.2719 81.3153 35.1328 80.9673 35.1328H55.0385C54.8662 35.1328 54.6956 35.167 54.5364 35.2334C54.3773 35.2997 54.2326 35.397 54.1108 35.5197C53.9889 35.6424 53.8923 35.788 53.8264 35.9483C53.7604 36.1086 53.7265 36.2804 53.7265 36.4538V62.5602C53.7265 62.7336 53.7604 62.9054 53.8263 63.0657C53.8923 63.226 53.9889 63.3716 54.1108 63.4943C54.2326 63.617 54.3772 63.7143 54.5364 63.7807C54.6956 63.8471 54.8662 63.8813 55.0385 63.8812H64.0669V75.6198L57.9952 83.7684H24.6657C23.6217 83.7684 22.6204 84.186 21.8821 84.9292C21.1439 85.6725 20.7291 86.6806 20.7291 87.7318V107.167C18.6316 107.946 16.8086 109.33 15.4882 111.146C14.1678 112.962 13.4085 115.13 13.3053 117.379C13.2033 120.435 14.3057 123.408 16.3722 125.649C18.4388 127.891 21.3017 129.218 24.3365 129.342C27.0323 129.423 29.6686 128.535 31.7741 126.838C33.8796 125.141 35.3173 122.746 35.83 120.08C36.3428 117.414 35.8973 114.651 34.5732 112.286C33.2491 109.92 31.1326 108.106 28.602 107.167V91.6952H57.9949L66.9534 103.718C67.0756 103.882 67.2341 104.015 67.4163 104.107C67.5985 104.199 67.7993 104.246 68.003 104.246C68.2067 104.246 68.4075 104.199 68.5897 104.107C68.7719 104.015 68.9304 103.882 69.0526 103.718L78.0112 91.6952H107.404V107.167C105.306 107.946 103.483 109.33 102.163 111.146C100.842 112.962 100.083 115.13 99.98 117.379C99.878 120.435 100.98 123.408 103.047 125.649C105.114 127.891 107.977 129.218 111.011 129.343C113.707 129.423 116.343 128.535 118.449 126.838C120.555 125.141 121.992 122.746 122.505 120.08C123.018 117.414 122.572 114.652 121.248 112.286C119.924 109.92 117.807 108.106 115.277 107.167ZM68.0031 56.7552C66.5793 56.7552 65.1875 56.3301 64.0036 55.5336C62.8198 54.7372 61.8971 53.6052 61.3522 52.2808C60.8074 50.9564 60.6648 49.499 60.9426 48.093C61.2204 46.687 61.906 45.3955 62.9128 44.3819C63.9196 43.3682 65.2023 42.6779 66.5987 42.3982C67.9952 42.1186 69.4426 42.2621 70.758 42.8107C72.0735 43.3593 73.1978 44.2883 73.9888 45.4803C74.7798 46.6722 75.202 48.0736 75.202 49.5071C75.2019 51.4294 74.4435 53.273 73.0934 54.6323C71.7434 55.9915 69.9124 56.7552 68.0031 56.7552Z" fill="#212B36"/>
</g>
<defs>
<clipPath id="clip0_601_2448">
<rect width="136" height="130" fill="white"/>
</clipPath>
</defs>
</svg>
